<?xml version="1.0" encoding="UTF-8" standalone="no"?>
<!DOCTYPE svg PUBLIC "-//W3C//DTD SVG 1.1//EN"
 "http://www.w3.org/Graphics/SVG/1.1/DTD/svg11.dtd">
<!-- Generated by graphviz version 2.38.0 (20140413.2041)
 -->
<!-- Title: %3 Pages: 1 -->
<svg width="387pt" height="207pt"
 viewBox="0.00 0.00 387.50 207.00" xmlns="http://www.w3.org/2000/svg" xmlns:xlink="http://www.w3.org/1999/xlink">
<g id="graph0" class="graph" transform="scale(1 1) rotate(0) translate(4 203)">
<title>%3</title>
<g id="clust1" class="cluster"><title>cluster1</title>
<polygon fill="none" stroke="gray" points="142.497,-8 142.497,-191 230.497,-191 230.497,-8 142.497,-8"/>
<text text-anchor="middle" x="186.497" y="-175.8" font-family="sans" font-size="14.00" fill="gray">replica 1</text>
</g>
<g id="clust2" class="cluster"><title>cluster2</title>
<polygon fill="none" stroke="gray" points="238.497,-8 238.497,-83 326.497,-83 326.497,-8 238.497,-8"/>
<text text-anchor="middle" x="282.497" y="-67.8" font-family="sans" font-size="14.00" fill="gray">replica 2</text>
</g>
<!-- User -->
<g id="node1" class="node"><title>User</title>
<ellipse fill="none" stroke="black" cx="32.4971" cy="-142" rx="32.4942" ry="18"/>
<text text-anchor="middle" x="32.4971" y="-138.3" font-family="sans" font-size="14.00">User</text>
</g>
<!-- Update -->
<g id="node2" class="node"><title>Update</title>
<polygon fill="none" stroke="black" points="222.497,-160 154.497,-160 154.497,-124 222.497,-124 222.497,-160"/>
<text text-anchor="middle" x="188.497" y="-138.3" font-family="sans" font-size="14.00">Update</text>
</g>
<!-- User&#45;&gt;Update -->
<g id="edge3" class="edge"><title>User&#45;&gt;Update</title>
<path fill="none" stroke="blue" d="M65.1998,-142C88.2077,-142 119.262,-142 144.449,-142"/>
<polygon fill="blue" stroke="blue" points="144.489,-145.5 154.489,-142 144.489,-138.5 144.489,-145.5"/>
<text text-anchor="middle" x="109.746" y="-148.8" font-family="sans" font-size="14.00" fill="blue">Operation</text>
</g>
<!-- Payload1 -->
<g id="node3" class="node"><title>Payload1</title>
<polygon fill="none" stroke="black" points="222.497,-52 150.497,-52 150.497,-16 222.497,-16 222.497,-52"/>
<text text-anchor="middle" x="186.497" y="-30.3" font-family="sans" font-size="14.00">Payload</text>
</g>
<!-- User&#45;&gt;Payload1 -->
<g id="edge4" class="edge"><title>User&#45;&gt;Payload1</title>
<path fill="none" stroke="blue" d="M60.4101,-121.787C89.2517,-101.935 133.852,-71.2365 161.551,-52.1707"/>
<polygon fill="blue" stroke="blue" points="58.2542,-119.022 52.0013,-127.575 62.2231,-124.788 58.2542,-119.022"/>
<text text-anchor="middle" x="127.497" y="-94.8" font-family="sans" font-size="14.00" fill="blue">Query</text>
</g>
<!-- Update&#45;&gt;Payload1 -->
<g id="edge1" class="edge"><title>Update&#45;&gt;Payload1</title>
<path fill="none" stroke="blue" d="M188.176,-123.969C187.863,-107.378 187.382,-81.8827 187.015,-62.4306"/>
<polygon fill="blue" stroke="blue" points="190.512,-62.2728 186.824,-52.3406 183.514,-62.4049 190.512,-62.2728"/>
<text text-anchor="middle" x="207.497" y="-94.8" font-family="sans" font-size="14.00" fill="blue">apply</text>
</g>
<!-- Payload2 -->
<g id="node4" class="node"><title>Payload2</title>
<polygon fill="none" stroke="black" points="318.497,-52 246.497,-52 246.497,-16 318.497,-16 318.497,-52"/>
<text text-anchor="middle" x="282.497" y="-30.3" font-family="sans" font-size="14.00">Payload</text>
</g>
<!-- Update&#45;&gt;Payload2 -->
<g id="edge2" class="edge"><title>Update&#45;&gt;Payload2</title>
<path fill="none" stroke="blue" d="M211.799,-123.892C218.481,-118.506 225.559,-112.308 231.497,-106 244.554,-92.1312 257.067,-74.7956 266.43,-60.726"/>
<polygon fill="blue" stroke="blue" points="269.575,-62.3102 272.103,-52.0212 263.711,-58.4884 269.575,-62.3102"/>
<text text-anchor="middle" x="311.497" y="-94.8" font-family="sans" font-size="14.00" fill="blue">transmit and apply</text>
</g>
</g>
</svg>
