<?xml version="1.0" encoding="UTF-8" standalone="no"?>
<!DOCTYPE svg PUBLIC "-//W3C//DTD SVG 1.1//EN"
 "http://www.w3.org/Graphics/SVG/1.1/DTD/svg11.dtd">
<!-- Generated by graphviz version 2.38.0 (20140413.2041)
 -->
<!-- Title: %3 Pages: 1 -->
<svg width="326pt" height="244pt"
 viewBox="0.00 0.00 326.00 244.00" xmlns="http://www.w3.org/2000/svg" xmlns:xlink="http://www.w3.org/1999/xlink">
<g id="graph0" class="graph" transform="scale(1 1) rotate(0) translate(4 240)">
<title>%3</title>
<g id="clust1" class="cluster"><title>cluster0</title>
<polygon fill="none" stroke="gray" points="8,-8 8,-155 100,-155 100,-8 8,-8"/>
<text text-anchor="middle" x="54" y="-139.8" font-family="sans-serif" font-size="14.00" fill="gray">replica 0</text>
</g>
<g id="clust2" class="cluster"><title>cluster1</title>
<polygon fill="none" stroke="gray" points="108,-8 108,-155 196,-155 196,-8 108,-8"/>
<text text-anchor="middle" x="152" y="-139.8" font-family="sans-serif" font-size="14.00" fill="gray">replica 1</text>
</g>
<g id="clust3" class="cluster"><title>cluster2</title>
<polygon fill="none" stroke="gray" points="218,-8 218,-155 310,-155 310,-8 218,-8"/>
<text text-anchor="middle" x="264" y="-139.8" font-family="sans-serif" font-size="14.00" fill="gray">replica 2</text>
</g>
<!-- strut0 -->
<g id="node1" class="node"><title>strut0</title>
</g>
<!-- Payload0 -->
<g id="node2" class="node"><title>Payload0</title>
<polygon fill="none" stroke="black" points="91,-52 19,-52 19,-16 91,-16 91,-52"/>
<text text-anchor="middle" x="55" y="-30.3" font-family="sans-serif" font-size="14.00">Payload</text>
</g>
<!-- strut0&#45;&gt;Payload0 -->
<g id="edge1" class="edge"><title>strut0&#45;&gt;Payload0</title>
</g>
<!-- User -->
<g id="node3" class="node"><title>User</title>
<ellipse fill="none" stroke="black" cx="175" cy="-218" rx="32.4942" ry="18"/>
<text text-anchor="middle" x="175" y="-214.3" font-family="sans-serif" font-size="14.00">User</text>
</g>
<!-- Op -->
<g id="node4" class="node"><title>Op</title>
<polygon fill="none" stroke="black" points="170,-124 116,-124 116,-88 170,-88 170,-124"/>
<text text-anchor="middle" x="143" y="-102.3" font-family="sans-serif" font-size="14.00">Op</text>
</g>
<!-- User&#45;&gt;Op -->
<g id="edge6" class="edge"><title>User&#45;&gt;Op</title>
<path fill="none" stroke="blue" d="M170,-199.812C164.857,-182.134 156.776,-154.354 150.793,-133.789"/>
<polygon fill="blue" stroke="blue" points="154.119,-132.691 147.965,-124.067 147.398,-134.646 154.119,-132.691"/>
<text text-anchor="middle" x="156.821" y="-181.069" font-family="sans-serif" font-size="14.00" fill="blue">Intent &#160;&#160;&#160;&#160;&#160;&#160;</text>
</g>
<!-- Payload1 -->
<g id="node5" class="node"><title>Payload1</title>
<polygon fill="none" stroke="black" points="188,-52 116,-52 116,-16 188,-16 188,-52"/>
<text text-anchor="middle" x="152" y="-30.3" font-family="sans-serif" font-size="14.00">Payload</text>
</g>
<!-- User&#45;&gt;Payload1 -->
<g id="edge7" class="edge"><title>User&#45;&gt;Payload1</title>
<path fill="none" stroke="green" d="M179.928,-189.997C183.794,-163.601 187.274,-122.469 179,-88 175.963,-75.3479 169.375,-62.311 163.467,-52.3331"/>
<polygon fill="green" stroke="green" points="176.449,-189.587 178.337,-200.012 183.362,-190.684 176.449,-189.587"/>
<text text-anchor="middle" x="172.832" y="-177.084" font-family="sans-serif" font-size="14.00" fill="green"> &#160;&#160;&#160;&#160;&#160;&#160;&#160;&#160;&#160;&#160;&#160;&#160;&#160;&#160;&#160;query</text>
</g>
<!-- Op&#45;&gt;Payload0 -->
<g id="edge3" class="edge"><title>Op&#45;&gt;Payload0</title>
<path fill="none" stroke="blue" d="M121.247,-87.6966C110.164,-78.8807 96.526,-68.0321 84.5104,-58.4742"/>
<polygon fill="blue" stroke="blue" points="86.5075,-55.5905 76.5026,-52.1043 82.1498,-61.0687 86.5075,-55.5905"/>
</g>
<!-- Op&#45;&gt;Payload1 -->
<g id="edge2" class="edge"><title>Op&#45;&gt;Payload1</title>
<path fill="none" stroke="blue" d="M145.225,-87.6966C146.217,-79.9827 147.408,-70.7125 148.514,-62.1124"/>
<polygon fill="blue" stroke="blue" points="151.997,-62.469 149.801,-52.1043 145.054,-61.5763 151.997,-62.469"/>
</g>
<!-- Payload2 -->
<g id="node7" class="node"><title>Payload2</title>
<polygon fill="none" stroke="black" points="299,-52 227,-52 227,-16 299,-16 299,-52"/>
<text text-anchor="middle" x="263" y="-30.3" font-family="sans-serif" font-size="14.00">Payload</text>
</g>
<!-- Op&#45;&gt;Payload2 -->
<g id="edge5" class="edge"><title>Op&#45;&gt;Payload2</title>
<path fill="none" stroke="blue" d="M170.23,-89.1159C186.365,-79.704 207.06,-67.6317 224.808,-57.2784"/>
<polygon fill="blue" stroke="blue" points="226.907,-60.1062 233.781,-52.0442 223.38,-54.0597 226.907,-60.1062"/>
</g>
<!-- strut2 -->
<g id="node6" class="node"><title>strut2</title>
</g>
<!-- strut2&#45;&gt;Payload2 -->
<g id="edge4" class="edge"><title>strut2&#45;&gt;Payload2</title>
</g>
</g>
</svg>
