<?xml version="1.0" encoding="UTF-8" standalone="no"?>
<!DOCTYPE svg PUBLIC "-//W3C//DTD SVG 1.1//EN"
 "http://www.w3.org/Graphics/SVG/1.1/DTD/svg11.dtd">
<!-- Generated by graphviz version 2.38.0 (20140413.2041)
 -->
<!-- Title: %3 Pages: 1 -->
<svg width="326pt" height="241pt"
 viewBox="0.00 0.00 326.00 241.00" xmlns="http://www.w3.org/2000/svg" xmlns:xlink="http://www.w3.org/1999/xlink">
<g id="graph0" class="graph" transform="scale(1 1) rotate(0) translate(4 237)">
<title>%3</title>
<g id="clust1" class="cluster"><title>cluster0</title>
<polygon fill="none" stroke="gray" points="8,-8 8,-156 100,-156 100,-8 8,-8"/>
<text text-anchor="middle" x="54" y="-140.8" font-family="sans" font-size="14.00" fill="gray">replica 0</text>
</g>
<g id="clust2" class="cluster"><title>cluster1</title>
<polygon fill="none" stroke="gray" points="122,-8 122,-156 210,-156 210,-8 122,-8"/>
<text text-anchor="middle" x="166" y="-140.8" font-family="sans" font-size="14.00" fill="gray">replica 1</text>
</g>
<g id="clust3" class="cluster"><title>cluster2</title>
<polygon fill="none" stroke="gray" points="218,-8 218,-156 310,-156 310,-8 218,-8"/>
<text text-anchor="middle" x="264" y="-140.8" font-family="sans" font-size="14.00" fill="gray">replica 2</text>
</g>
<!-- strut0 -->
<g id="node1" class="node"><title>strut0</title>
</g>
<!-- Payload0 -->
<g id="node2" class="node"><title>Payload0</title>
<polygon fill="none" stroke="black" points="91,-52 19,-52 19,-16 91,-16 91,-52"/>
<text text-anchor="middle" x="55" y="-30.3" font-family="sans" font-size="14.00">Payload</text>
</g>
<!-- strut0&#45;&gt;Payload0 -->
<g id="edge1" class="edge"><title>strut0&#45;&gt;Payload0</title>
</g>
<!-- User -->
<g id="node3" class="node"><title>User</title>
<ellipse fill="none" stroke="black" cx="142" cy="-215" rx="32.4942" ry="18"/>
<text text-anchor="middle" x="142" y="-211.3" font-family="sans" font-size="14.00">User</text>
</g>
<!-- Op -->
<g id="node4" class="node"><title>Op</title>
<polygon fill="none" stroke="black" points="202,-125 148,-125 148,-89 202,-89 202,-125"/>
<text text-anchor="middle" x="175" y="-103.3" font-family="sans" font-size="14.00">Op</text>
</g>
<!-- User&#45;&gt;Op -->
<g id="edge6" class="edge"><title>User&#45;&gt;Op</title>
<path fill="none" stroke="blue" d="M147.302,-196.969C152.515,-180.224 160.552,-154.41 166.628,-134.892"/>
<polygon fill="blue" stroke="blue" points="169.971,-135.929 169.602,-125.341 163.287,-133.848 169.971,-135.929"/>
<text text-anchor="middle" x="179.5" y="-167.8" font-family="sans" font-size="14.00" fill="blue">Intent</text>
</g>
<!-- Payload1 -->
<g id="node5" class="node"><title>Payload1</title>
<polygon fill="none" stroke="black" points="202,-52 130,-52 130,-16 202,-16 202,-52"/>
<text text-anchor="middle" x="166" y="-30.3" font-family="sans" font-size="14.00">Payload</text>
</g>
<!-- User&#45;&gt;Payload1 -->
<g id="edge7" class="edge"><title>User&#45;&gt;Payload1</title>
<path fill="none" stroke="green" d="M137.407,-186.644C134.027,-161.04 131.232,-121.905 139,-89 142.082,-75.9425 148.832,-62.4425 154.812,-52.2069"/>
<polygon fill="green" stroke="green" points="133.97,-187.334 138.862,-196.732 140.898,-186.335 133.97,-187.334"/>
</g>
<!-- Op&#45;&gt;Payload0 -->
<g id="edge3" class="edge"><title>Op&#45;&gt;Payload0</title>
<path fill="none" stroke="blue" d="M147.77,-89.889C131.518,-80.2729 110.638,-67.9189 92.8034,-57.367"/>
<polygon fill="blue" stroke="blue" points="94.1841,-54.1172 83.7955,-52.0373 90.6196,-60.1417 94.1841,-54.1172"/>
</g>
<!-- Op&#45;&gt;Payload1 -->
<g id="edge2" class="edge"><title>Op&#45;&gt;Payload1</title>
<path fill="none" stroke="blue" d="M172.821,-88.8129C171.804,-80.7895 170.569,-71.0475 169.431,-62.0691"/>
<polygon fill="blue" stroke="blue" points="172.888,-61.5093 168.159,-52.0288 165.944,-62.3896 172.888,-61.5093"/>
</g>
<!-- Payload2 -->
<g id="node7" class="node"><title>Payload2</title>
<polygon fill="none" stroke="black" points="298,-52 226,-52 226,-16 298,-16 298,-52"/>
<text text-anchor="middle" x="262" y="-30.3" font-family="sans" font-size="14.00">Payload</text>
</g>
<!-- Op&#45;&gt;Payload2 -->
<g id="edge5" class="edge"><title>Op&#45;&gt;Payload2</title>
<path fill="none" stroke="blue" d="M196.06,-88.8129C207.174,-79.743 220.979,-68.4769 233.081,-58.6004"/>
<polygon fill="blue" stroke="blue" points="235.599,-61.0632 241.134,-52.0288 231.173,-55.6399 235.599,-61.0632"/>
</g>
<!-- strut2 -->
<g id="node6" class="node"><title>strut2</title>
</g>
<!-- strut2&#45;&gt;Payload2 -->
<g id="edge4" class="edge"><title>strut2&#45;&gt;Payload2</title>
</g>
</g>
</svg>
